# xmcd
#
# Track frame offsets:
# 150
# 15247
# 29407
# 47032
# 65877
# 85635
# 103145
# 117112
# 138877
# 150705
#
# Disc length: 2294 seconds
#
#
# Revision: 1
# Processed by: cddbd v1.5.2PL0 Copyright (c) Steve Scherf et al.
# Submitted via: FreeRIP 2.80 
#
DISCID=7908f40a
DTITLE=Elvis - Elvis for Babies
DYEAR=2000
DGENRE=Other
TTITLE0=Dont Be Cruel
TTITLE1=Are you lonesome tonight
TTITLE2=Its Now or Never
TTITLE3=Love me Tender
TTITLE4=Wild in The Country
TTITLE5=Thats Alright, MAMA
TTITLE6=Wooden Heart
TTITLE7=Cant Help Falling in Love
TTITLE8=Crying in the chapel
TTITLE9=In the Ghetoo
EXTD=
EXTT0=
EXTT1=
EXTT2=
EXTT3=
EXTT4=
EXTT5=
EXTT6=
EXTT7=
EXTT8=
EXTT9=
PLAYORDER=
